<svg width="100%" height="100%" id="svg" viewBox="0 0 1440 580" xmlns="http://www.w3.org/2000/svg"><path d="M 0,590 C 0,590 0,118 0,118 C 69.44005496392992,97.055307454483 138.88010992785985,76.110614908966 202,83 C 265.11989007214015,89.889385091034 321.9196152524905,124.61284781861903 395,129 C 468.0803847475095,133.38715218138097 557.441429062178,107.43799381655788 622,113 C 686.558570937822,118.56200618344212 726.3146684987976,155.63517691514943 785,147 C 843.6853315012024,138.36482308485057 921.2998969426317,84.02129852284439 1009,76 C 1096.7001030573683,67.97870147715561 1194.4857437306766,106.27962899347304 1268,121 C 1341.5142562693234,135.72037100652696 1390.7571281346618,126.86018550326348 1440,118 C 1440,118 1440,590 1440,590 Z" stroke="none" stroke-width="0" fill="rgba(97, 16, 109, 1)" fill-opacity="0.265" class="path-0" style="transition-property: all; transition-timing-function: cubic-bezier(0.4, 0, 0.2, 1); transition-duration: 300ms; transition-delay: 150ms;"></path><path d="M 0,590 C 0,590 0,236 0,236 C 62.26520096186877,257.8941944349021 124.53040192373754,279.7883888698042 202,270 C 279.46959807626246,260.2116111301958 372.14359326691863,218.74063895568537 443,203 C 513.8564067330814,187.25936104431463 562.8952250085882,197.24905530745446 611,216 C 659.1047749914118,234.75094469254554 706.2755066987289,262.26313981449675 785,270 C 863.7244933012711,277.73686018550325 974.002748196496,265.6983854345586 1061,250 C 1147.997251803504,234.3016145654414 1211.7135005152868,214.94331844726895 1271,212 C 1330.2864994847132,209.05668155273105 1385.1432497423566,222.52834077636552 1440,236 C 1440,236 1440,590 1440,590 Z" stroke="none" stroke-width="0" fill="rgba(97, 16, 109, 1)" fill-opacity="0.4" class="path-1" style="transition-property: all; transition-timing-function: cubic-bezier(0.4, 0, 0.2, 1); transition-duration: 300ms; transition-delay: 150ms;"></path><path d="M 0,590 C 0,590 0,354 0,354 C 85.93060803847476,328.13122638268635 171.86121607694952,302.26245276537276 230,311 C 288.1387839230505,319.73754723462724 318.4857437306767,363.0814153211955 373,376 C 427.5142562693233,388.9185846788045 506.1958090003436,371.4118859498454 582,376 C 657.8041909996564,380.5881140501546 730.7310202679491,407.2710408794229 808,397 C 885.2689797320509,386.7289591205771 966.8801099278598,339.503950532463 1030,323 C 1093.1198900721402,306.496049467537 1137.7485400206115,320.7131569907249 1203,331 C 1268.2514599793885,341.2868430092751 1354.1257299896943,347.64342150463756 1440,354 C 1440,354 1440,590 1440,590 Z" stroke="none" stroke-width="0" fill="rgba(97, 16, 109, 1)" fill-opacity="0.53" class="path-2" style="transition-property: all; transition-timing-function: cubic-bezier(0.4, 0, 0.2, 1); transition-duration: 300ms; transition-delay: 150ms;"></path><path d="M 0,590 C 0,590 0,472 0,472 C 69.00858811405016,451.5925798694607 138.0171762281003,431.18515973892136 200,430 C 261.9828237718997,428.81484026107864 316.9398832016489,446.8519409137753 386,455 C 455.0601167983511,463.1480590862247 538.2232909653042,461.4070766059773 605,472 C 671.7767090346958,482.5929233940227 722.1669529371349,505.51975266231534 786,516 C 849.8330470628651,526.4802473376847 927.108897286156,524.5139127447612 1004,511 C 1080.891102713844,497.4860872552387 1157.3974579182411,472.4245963586396 1230,464 C 1302.6025420817589,455.5754036413604 1371.3012710408793,463.78770182068024 1440,472 C 1440,472 1440,590 1440,590 Z" stroke="none" stroke-width="0" fill="rgba(97, 16, 109, 1)" fill-opacity="1" class="path-3" style="transition-property: all; transition-timing-function: cubic-bezier(0.4, 0, 0.2, 1); transition-duration: 300ms; transition-delay: 150ms;"></path></svg>